{
    "asset" : {
        "generator" : "Khronos glTF Blender I/O v0.9.36",
        "version" : "2.0"
    },
    "scene" : 0,
    "scenes" : [
        {
            "name" : "Scene",
            "nodes" : [
                1,
                12
            ]
        }
    ],
    "nodes" : [
        {
            "camera" : 0,
            "name" : "Camera_Orientation",
            "rotation" : [
                -0.7071067690849304,
                0,
                0,
                0.7071067690849304
            ]
        },
        {
            "children" : [
                0
            ],
            "name" : "Camera",
            "rotation" : [
                0.6886348724365234,
                0.012763566337525845,
                -0.012125126086175442,
                0.7248945236206055
            ],
            "translation" : [
                0.1796823889017105,
                1.265163779258728,
                6.266907691955566
            ]
        },
        {
            "mesh" : 0,
            "name" : "Object_10"
        },
        {
            "mesh" : 1,
            "name" : "Object_3"
        },
        {
            "mesh" : 2,
            "name" : "Object_4"
        },
        {
            "mesh" : 3,
            "name" : "Object_5"
        },
        {
            "mesh" : 4,
            "name" : "Object_6"
        },
        {
            "mesh" : 5,
            "name" : "Object_7"
        },
        {
            "mesh" : 6,
            "name" : "Object_8"
        },
        {
            "mesh" : 7,
            "name" : "Object_9"
        },
        {
            "children" : [
                2,
                3,
                4,
                5,
                6,
                7,
                8,
                9
            ],
            "name" : "CornellBox-Original.obj.cleaner.materialmerger.gles.001"
        },
        {
            "children" : [
                10
            ],
            "name" : "RootNode (model correction matrix).001"
        },
        {
            "children" : [
                11
            ],
            "name" : "RootNode (gltf orientation matrix).001"
        }
    ],
    "cameras" : [
        {
            "name" : "Camera",
            "perspective" : {
                "yfov" : 0.39959652046304894,
                "zfar" : 100,
                "znear" : 0.10000000149011612
            },
            "type" : "perspective"
        }
    ],
    "materials" : [
        {
            "doubleSided" : true,
            "emissiveFactor" : [
                0,
                0,
                0
            ],
            "name" : "tallBox",
            "pbrMetallicRoughness" : {
                "baseColorFactor" : [
                    0.7250000238418579,
                    0.7099999785423279,
                    0.6800000071525574,
                    1
                ],
                "metallicFactor" : 0,
                "roughnessFactor" : 1
            }
        },
        {
            "doubleSided" : true,
            "emissiveFactor" : [
                0,
                0,
                0
            ],
            "name" : "backWall",
            "pbrMetallicRoughness" : {
                "baseColorFactor" : [
                    0.7250000238418579,
                    0.7099999785423279,
                    0.6800000071525574,
                    1
                ],
                "metallicFactor" : 0,
                "roughnessFactor" : 1
            }
        },
        {
            "doubleSided" : true,
            "emissiveFactor" : [
                0,
                0,
                0
            ],
            "name" : "ceiling",
            "pbrMetallicRoughness" : {
                "baseColorFactor" : [
                    0.7250000238418579,
                    0.7099999785423279,
                    0.6800000071525574,
                    1
                ],
                "metallicFactor" : 0,
                "roughnessFactor" : 1
            }
        },
        {
            "doubleSided" : true,
            "emissiveFactor" : [
                0,
                0,
                0
            ],
            "name" : "floor",
            "pbrMetallicRoughness" : {
                "baseColorFactor" : [
                    0.7250000238418579,
                    0.7099999785423279,
                    0.6800000071525574,
                    1
                ],
                "metallicFactor" : 0,
                "roughnessFactor" : 1
            }
        },
        {
            "doubleSided" : true,
            "emissiveFactor" : [
                0,
                0,
                0
            ],
            "name" : "leftWall",
            "pbrMetallicRoughness" : {
                "baseColorFactor" : [
                    0.6299999952316284,
                    0.06499999761581421,
                    0.05000000074505806,
                    1
                ],
                "metallicFactor" : 0,
                "roughnessFactor" : 1
            }
        },
        {
            "doubleSided" : true,
            "emissiveFactor" : [
                1,
                1,
                1
            ],
            "name" : "light",
            "pbrMetallicRoughness" : {
                "baseColorFactor" : [
                    0.7799999713897705,
                    0.7799999713897705,
                    0.7799999713897705,
                    1
                ],
                "metallicFactor" : 0,
                "roughnessFactor" : 1
            }
        },
        {
            "doubleSided" : true,
            "emissiveFactor" : [
                0,
                0,
                0
            ],
            "name" : "rightWall",
            "pbrMetallicRoughness" : {
                "baseColorFactor" : [
                    0.14000000059604645,
                    0.44999998807907104,
                    0.09099999815225601,
                    1
                ],
                "metallicFactor" : 0,
                "roughnessFactor" : 1
            }
        },
        {
            "doubleSided" : true,
            "emissiveFactor" : [
                0,
                0,
                0
            ],
            "name" : "shortBox",
            "pbrMetallicRoughness" : {
                "baseColorFactor" : [
                    0.7250000238418579,
                    0.7099999785423279,
                    0.6800000071525574,
                    1
                ],
                "metallicFactor" : 0,
                "roughnessFactor" : 1
            }
        }
    ],
    "meshes" : [
        {
            "name" : "Mesh_7",
            "primitives" : [
                {
                    "attributes" : {
                        "POSITION" : 0,
                        "NORMAL" : 1
                    },
                    "indices" : 2,
                    "material" : 0
                }
            ]
        },
        {
            "name" : "Mesh_0.001",
            "primitives" : [
                {
                    "attributes" : {
                        "POSITION" : 3,
                        "NORMAL" : 4
                    },
                    "indices" : 5,
                    "material" : 1
                }
            ]
        },
        {
            "name" : "Mesh_1",
            "primitives" : [
                {
                    "attributes" : {
                        "POSITION" : 6,
                        "NORMAL" : 7
                    },
                    "indices" : 5,
                    "material" : 2
                }
            ]
        },
        {
            "name" : "Mesh_2",
            "primitives" : [
                {
                    "attributes" : {
                        "POSITION" : 8,
                        "NORMAL" : 9
                    },
                    "indices" : 5,
                    "material" : 3
                }
            ]
        },
        {
            "name" : "Mesh_3",
            "primitives" : [
                {
                    "attributes" : {
                        "POSITION" : 10,
                        "NORMAL" : 11
                    },
                    "indices" : 12,
                    "material" : 4
                }
            ]
        },
        {
            "name" : "Mesh_4",
            "primitives" : [
                {
                    "attributes" : {
                        "POSITION" : 13,
                        "NORMAL" : 14
                    },
                    "indices" : 5,
                    "material" : 5
                }
            ]
        },
        {
            "name" : "Mesh_5",
            "primitives" : [
                {
                    "attributes" : {
                        "POSITION" : 15,
                        "NORMAL" : 16
                    },
                    "indices" : 5,
                    "material" : 6
                }
            ]
        },
        {
            "name" : "Mesh_6",
            "primitives" : [
                {
                    "attributes" : {
                        "POSITION" : 17,
                        "NORMAL" : 18
                    },
                    "indices" : 19,
                    "material" : 7
                }
            ]
        }
    ],
    "accessors" : [
        {
            "bufferView" : 0,
            "componentType" : 5126,
            "count" : 22,
            "max" : [
                0.03999999910593033,
                1.2000000476837158,
                0.09000000357627869
            ],
            "min" : [
                -0.7099999785423279,
                0,
                -0.6700000166893005
            ],
            "type" : "VEC3"
        },
        {
            "bufferView" : 1,
            "componentType" : 5126,
            "count" : 22,
            "type" : "VEC3"
        },
        {
            "bufferView" : 2,
            "componentType" : 5123,
            "count" : 30,
            "type" : "SCALAR"
        },
        {
            "bufferView" : 3,
            "componentType" : 5126,
            "count" : 4,
            "max" : [
                1,
                1.9900000095367432,
                -1.0399999618530273
            ],
            "min" : [
                -1.0199999809265137,
                0,
                -1.0399999618530273
            ],
            "type" : "VEC3"
        },
        {
            "bufferView" : 4,
            "componentType" : 5126,
            "count" : 4,
            "type" : "VEC3"
        },
        {
            "bufferView" : 5,
            "componentType" : 5123,
            "count" : 6,
            "type" : "SCALAR"
        },
        {
            "bufferView" : 6,
            "componentType" : 5126,
            "count" : 4,
            "max" : [
                1,
                1.9900000095367432,
                0.9900000095367432
            ],
            "min" : [
                -1.0199999809265137,
                1.9900000095367432,
                -1.0399999618530273
            ],
            "type" : "VEC3"
        },
        {
            "bufferView" : 7,
            "componentType" : 5126,
            "count" : 4,
            "type" : "VEC3"
        },
        {
            "bufferView" : 8,
            "componentType" : 5126,
            "count" : 4,
            "max" : [
                1,
                0,
                0.9900000095367432
            ],
            "min" : [
                -1.0099999904632568,
                0,
                -1.0399999618530273
            ],
            "type" : "VEC3"
        },
        {
            "bufferView" : 9,
            "componentType" : 5126,
            "count" : 4,
            "type" : "VEC3"
        },
        {
            "bufferView" : 10,
            "componentType" : 5126,
            "count" : 6,
            "max" : [
                -0.9900000095367432,
                1.9900000095367432,
                0.9900000095367432
            ],
            "min" : [
                -1.0199999809265137,
                0,
                -1.0399999618530273
            ],
            "type" : "VEC3"
        },
        {
            "bufferView" : 11,
            "componentType" : 5126,
            "count" : 6,
            "type" : "VEC3"
        },
        {
            "bufferView" : 12,
            "componentType" : 5123,
            "count" : 6,
            "type" : "SCALAR"
        },
        {
            "bufferView" : 13,
            "componentType" : 5126,
            "count" : 4,
            "max" : [
                0.23000000417232513,
                1.9800000190734863,
                0.1599999964237213
            ],
            "min" : [
                -0.23999999463558197,
                1.9800000190734863,
                -0.2199999988079071
            ],
            "type" : "VEC3"
        },
        {
            "bufferView" : 14,
            "componentType" : 5126,
            "count" : 4,
            "type" : "VEC3"
        },
        {
            "bufferView" : 15,
            "componentType" : 5126,
            "count" : 4,
            "max" : [
                1,
                1.9900000095367432,
                0.9900000095367432
            ],
            "min" : [
                1,
                0,
                -1.0399999618530273
            ],
            "type" : "VEC3"
        },
        {
            "bufferView" : 16,
            "componentType" : 5126,
            "count" : 4,
            "type" : "VEC3"
        },
        {
            "bufferView" : 17,
            "componentType" : 5126,
            "count" : 20,
            "max" : [
                0.699999988079071,
                0.6000000238418579,
                0.75
            ],
            "min" : [
                -0.05000000074505806,
                0,
                0
            ],
            "type" : "VEC3"
        },
        {
            "bufferView" : 18,
            "componentType" : 5126,
            "count" : 20,
            "type" : "VEC3"
        },
        {
            "bufferView" : 19,
            "componentType" : 5123,
            "count" : 30,
            "type" : "SCALAR"
        }
    ],
    "bufferViews" : [
        {
            "buffer" : 0,
            "byteLength" : 264,
            "byteOffset" : 0
        },
        {
            "buffer" : 0,
            "byteLength" : 264,
            "byteOffset" : 264
        },
        {
            "buffer" : 0,
            "byteLength" : 60,
            "byteOffset" : 528
        },
        {
            "buffer" : 0,
            "byteLength" : 48,
            "byteOffset" : 588
        },
        {
            "buffer" : 0,
            "byteLength" : 48,
            "byteOffset" : 636
        },
        {
            "buffer" : 0,
            "byteLength" : 12,
            "byteOffset" : 684
        },
        {
            "buffer" : 0,
            "byteLength" : 48,
            "byteOffset" : 696
        },
        {
            "buffer" : 0,
            "byteLength" : 48,
            "byteOffset" : 744
        },
        {
            "buffer" : 0,
            "byteLength" : 48,
            "byteOffset" : 792
        },
        {
            "buffer" : 0,
            "byteLength" : 48,
            "byteOffset" : 840
        },
        {
            "buffer" : 0,
            "byteLength" : 72,
            "byteOffset" : 888
        },
        {
            "buffer" : 0,
            "byteLength" : 72,
            "byteOffset" : 960
        },
        {
            "buffer" : 0,
            "byteLength" : 12,
            "byteOffset" : 1032
        },
        {
            "buffer" : 0,
            "byteLength" : 48,
            "byteOffset" : 1044
        },
        {
            "buffer" : 0,
            "byteLength" : 48,
            "byteOffset" : 1092
        },
        {
            "buffer" : 0,
            "byteLength" : 48,
            "byteOffset" : 1140
        },
        {
            "buffer" : 0,
            "byteLength" : 48,
            "byteOffset" : 1188
        },
        {
            "buffer" : 0,
            "byteLength" : 240,
            "byteOffset" : 1236
        },
        {
            "buffer" : 0,
            "byteLength" : 240,
            "byteOffset" : 1476
        },
        {
            "buffer" : 0,
            "byteLength" : 60,
            "byteOffset" : 1716
        }
    ],
    "buffers" : [
        {
            "byteLength" : 1776,
            "uri" : "data:application/octet-stream;base64,"
        }
    ]
}
