{
    "asset" : {
        "generator" : "Khronos glTF Blender I/O v0.9.36",
        "version" : "2.0"
    },
    "scene" : 0,
    "scenes" : [
        {
            "name" : "Scene",
            "nodes" : [
                0
            ]
        }
    ],
    "nodes" : [
        {
            "mesh" : 0,
            "name" : "Sphere"
        }
    ],
    "materials" : [
        {
            "doubleSided" : true,
            "emissiveFactor" : [
                200,
                200,
                200
            ],
            "name" : "Emissive",
            "pbrMetallicRoughness" : {}
        }
    ],
    "meshes" : [
        {
            "name" : "Sphere",
            "primitives" : [
                {
                    "attributes" : {
                        "POSITION" : 0,
                        "NORMAL" : 1,
                        "TANGENT" : 2,
                        "TEXCOORD_0" : 3
                    },
                    "indices" : 4,
                    "material" : 0
                }
            ]
        }
    ],
    "accessors" : [
        {
            "bufferView" : 0,
            "componentType" : 5126,
            "count" : 823,
            "max" : [
                0.9999993443489075,
                1,
                0.9999987483024597
            ],
            "min" : [
                -0.9999988079071045,
                -1,
                -1
            ],
            "type" : "VEC3"
        },
        {
            "bufferView" : 1,
            "componentType" : 5126,
            "count" : 823,
            "type" : "VEC3"
        },
        {
            "bufferView" : 2,
            "componentType" : 5126,
            "count" : 823,
            "type" : "VEC4"
        },
        {
            "bufferView" : 3,
            "componentType" : 5126,
            "count" : 823,
            "type" : "VEC2"
        },
        {
            "bufferView" : 4,
            "componentType" : 5123,
            "count" : 4416,
            "type" : "SCALAR"
        }
    ],
    "bufferViews" : [
        {
            "buffer" : 0,
            "byteLength" : 9876,
            "byteOffset" : 0
        },
        {
            "buffer" : 0,
            "byteLength" : 9876,
            "byteOffset" : 9876
        },
        {
            "buffer" : 0,
            "byteLength" : 13168,
            "byteOffset" : 19752
        },
        {
            "buffer" : 0,
            "byteLength" : 6584,
            "byteOffset" : 32920
        },
        {
            "buffer" : 0,
            "byteLength" : 8832,
            "byteOffset" : 39504
        }
    ],
    "buffers" : [
        {
            "byteLength" : 48336,
            "uri" : "data:application/octet-stream;base64,"
        }
    ]
}
