{
    "asset" : {
        "generator" : "Khronos glTF Blender I/O v1.6.16",
        "version" : "2.0"
    },
    "extensionsUsed" : [
        "KHR_materials_transmission"
    ],
    "scene" : 0,
    "scenes" : [
        {
            "name" : "Scene",
            "nodes" : [
                11,
                12
            ]
        }
    ],
    "nodes" : [
        {
            "mesh" : 0,
            "name" : "Box010.001_Color_0"
        },
        {
            "mesh" : 1,
            "name" : "Box010.001_emission_lamp_0"
        },
        {
            "mesh" : 2,
            "name" : "Box010.001_emission_window_0"
        },
        {
            "mesh" : 3,
            "name" : "Box010.001_glass_0"
        },
        {
            "mesh" : 4,
            "name" : "Box010.001_metal.001_0"
        },
        {
            "mesh" : 5,
            "name" : "Box010.001_metal_0"
        },
        {
            "mesh" : 6,
            "name" : "Box010.001_mirror_0"
        },
        {
            "children" : [
                0,
                1,
                2,
                3,
                4,
                5,
                6
            ],
            "name" : "Box010.001",
            "rotation" : [
                -0.7071067094802856,
                0,
                0,
                0.70710688829422
            ],
            "scale" : [
                100,
                100,
                100
            ]
        },
        {
            "children" : [
                7
            ],
            "name" : "RootNode"
        },
        {
            "children" : [
                8
            ],
            "name" : "dde3a4521cb4454e9e910ed24fcba3e5.fbx",
            "rotation" : [
                0.7071068286895752,
                0,
                0,
                0.7071068286895752
            ]
        },
        {
            "children" : [
                9
            ],
            "name" : "RootNode (model correction matrix)",
            "translation" : [
                0,
                -2.0521947590168566e-06,
                2.684009086806327e-05
            ]
        },
        {
            "children" : [
                10
            ],
            "name" : "RootNode (gltf orientation matrix)",
            "scale" : [
                0.5,
                0.5,
                0.5
            ]
        },
        {
            "name" : "Camera",
            "rotation" : [
                0.6027722954750061,
                -0.10588648915290833,
                0.07215534895658493,
                0.7875577211380005
            ],
            "translation" : [
                194.4169158935547,
                546.742919921875,
                -103.66028594970703
            ]
        }
    ],
    "materials" : [
        {
            "doubleSided" : true,
            "name" : "Color",
            "pbrMetallicRoughness" : {
                "baseColorTexture" : {
                    "index" : 0
                },
                "metallicFactor" : 0.21532462537288666,
                "roughnessFactor" : 0.4203926622867584
            }
        },
        {
            "doubleSided" : true,
            "emissiveFactor" : [
                1,
                0,
                0
            ],
            "name" : "emission_lamp",
            "pbrMetallicRoughness" : {
                "baseColorFactor" : [
                    0.800000011920929,
                    0.800000011920929,
                    0.800000011920929,
                    1
                ],
                "metallicFactor" : 0,
                "roughnessFactor" : 0.8040408492088318
            }
        },
        {
            "doubleSided" : true,
            "emissiveFactor" : [
                0.4125511050224304,
                1,
                1
            ],
            "name" : "emission_window",
            "pbrMetallicRoughness" : {
                "baseColorFactor" : [
                    0.800000011920929,
                    0.800000011920929,
                    0.800000011920929,
                    1
                ],
                "metallicFactor" : 0,
                "roughnessFactor" : 0.8040408492088318
            }
        },
        {
            "alphaMode" : "BLEND",
            "doubleSided" : true,
            "extensions" : {
                "KHR_materials_transmission" : {
                    "transmissionFactor" : 0.9852941036224365
                }
            },
            "name" : "glass",
            "pbrMetallicRoughness" : {
                "baseColorFactor" : [
                    0.3678484857082367,
                    0.8000000715255737,
                    0.8000000715255737,
                    0.13499999046325684
                ],
                "metallicFactor" : 0,
                "roughnessFactor" : 0.015686266124248505
            }
        },
        {
            "doubleSided" : true,
            "name" : "metal.001",
            "pbrMetallicRoughness" : {
                "baseColorFactor" : [
                    0.8794689774513245,
                    0.9709929823875427,
                    1,
                    1
                ],
                "metallicFactor" : 0.717783510684967,
                "roughnessFactor" : 0.7296775579452515
            }
        },
        {
            "doubleSided" : true,
            "name" : "metal",
            "pbrMetallicRoughness" : {
                "baseColorFactor" : [
                    0.21335600316524506,
                    0.32686200737953186,
                    0.36723798513412476,
                    1
                ],
                "metallicFactor" : 0.34093934297561646,
                "roughnessFactor" : 0.9201613068580627
            }
        },
        {
            "doubleSided" : true,
            "name" : "mirror",
            "pbrMetallicRoughness" : {
                "baseColorFactor" : [
                    0.6698760390281677,
                    1,
                    0.9427889585494995,
                    1
                ],
                "roughnessFactor" : 0.027271367609500885
            }
        }
    ],
    "meshes" : [
        {
            "name" : "Box010.001_Color_0",
            "primitives" : [
                {
                    "attributes" : {
                        "POSITION" : 0,
                        "NORMAL" : 1,
                        "TANGENT" : 2,
                        "TEXCOORD_0" : 3
                    },
                    "indices" : 4,
                    "material" : 0
                }
            ]
        },
        {
            "name" : "Box010.001_emission_lamp_0",
            "primitives" : [
                {
                    "attributes" : {
                        "POSITION" : 5,
                        "NORMAL" : 6,
                        "TANGENT" : 7,
                        "TEXCOORD_0" : 8
                    },
                    "indices" : 9,
                    "material" : 1
                }
            ]
        },
        {
            "name" : "Box010.001_emission_window_0",
            "primitives" : [
                {
                    "attributes" : {
                        "POSITION" : 10,
                        "NORMAL" : 11,
                        "TANGENT" : 12,
                        "TEXCOORD_0" : 13
                    },
                    "indices" : 14,
                    "material" : 2
                }
            ]
        },
        {
            "name" : "Box010.001_glass_0",
            "primitives" : [
                {
                    "attributes" : {
                        "POSITION" : 15,
                        "NORMAL" : 16,
                        "TANGENT" : 17,
                        "TEXCOORD_0" : 18
                    },
                    "indices" : 19,
                    "material" : 3
                }
            ]
        },
        {
            "name" : "Box010.001_metal.001_0",
            "primitives" : [
                {
                    "attributes" : {
                        "POSITION" : 20,
                        "NORMAL" : 21,
                        "TANGENT" : 22,
                        "TEXCOORD_0" : 23
                    },
                    "indices" : 24,
                    "material" : 4
                }
            ]
        },
        {
            "name" : "Box010.001_metal_0",
            "primitives" : [
                {
                    "attributes" : {
                        "POSITION" : 25,
                        "NORMAL" : 26,
                        "TANGENT" : 27,
                        "TEXCOORD_0" : 28
                    },
                    "indices" : 29,
                    "material" : 5
                }
            ]
        },
        {
            "name" : "Box010.001_mirror_0",
            "primitives" : [
                {
                    "attributes" : {
                        "POSITION" : 30,
                        "NORMAL" : 31,
                        "TANGENT" : 32,
                        "TEXCOORD_0" : 33
                    },
                    "indices" : 34,
                    "material" : 6
                }
            ]
        }
    ],
    "textures" : [
        {
            "sampler" : 0,
            "source" : 0
        }
    ],
    "images" : [
        {
            "bufferView" : 5,
            "mimeType" : "image/png",
            "name" : "Color_baseColor"
        }
    ],
    "accessors" : [
        {
            "bufferView" : 0,
            "componentType" : 5126,
            "count" : 42207,
            "max" : [
                7.084996700286865,
                10.0671968460083,
                7.109984397888184
            ],
            "min" : [
                -7.117390155792236,
                -0.16836021840572357,
                -8.094864845275879
            ],
            "type" : "VEC3"
        },
        {
            "bufferView" : 1,
            "componentType" : 5126,
            "count" : 42207,
            "type" : "VEC3"
        },
        {
            "bufferView" : 2,
            "componentType" : 5126,
            "count" : 42207,
            "type" : "VEC4"
        },
        {
            "bufferView" : 3,
            "componentType" : 5126,
            "count" : 42207,
            "type" : "VEC2"
        },
        {
            "bufferView" : 4,
            "componentType" : 5123,
            "count" : 47628,
            "type" : "SCALAR"
        },
        {
            "bufferView" : 6,
            "componentType" : 5126,
            "count" : 862,
            "max" : [
                6.719587802886963,
                5.337034702301025,
                2.0501904487609863
            ],
            "min" : [
                -4.952714920043945,
                1.4871360063552856,
                -6.281795978546143
            ],
            "type" : "VEC3"
        },
        {
            "bufferView" : 7,
            "componentType" : 5126,
            "count" : 862,
            "type" : "VEC3"
        },
        {
            "bufferView" : 8,
            "componentType" : 5126,
            "count" : 862,
            "type" : "VEC4"
        },
        {
            "bufferView" : 9,
            "componentType" : 5126,
            "count" : 862,
            "type" : "VEC2"
        },
        {
            "bufferView" : 10,
            "componentType" : 5123,
            "count" : 876,
            "type" : "SCALAR"
        },
        {
            "bufferView" : 11,
            "componentType" : 5126,
            "count" : 20,
            "max" : [
                5.724793910980225,
                8.099072456359863,
                -0.8791521787643433
            ],
            "min" : [
                -3.6954660415649414,
                3.209016799926758,
                -8.094864845275879
            ],
            "type" : "VEC3"
        },
        {
            "bufferView" : 12,
            "componentType" : 5126,
            "count" : 20,
            "type" : "VEC3"
        },
        {
            "bufferView" : 13,
            "componentType" : 5126,
            "count" : 20,
            "type" : "VEC4"
        },
        {
            "bufferView" : 14,
            "componentType" : 5126,
            "count" : 20,
            "type" : "VEC2"
        },
        {
            "bufferView" : 15,
            "componentType" : 5123,
            "count" : 24,
            "type" : "SCALAR"
        },
        {
            "bufferView" : 16,
            "componentType" : 5126,
            "count" : 324,
            "max" : [
                3.933255672454834,
                4.889866828918457,
                -4.793126106262207
            ],
            "min" : [
                3.0823633670806885,
                3.005122423171997,
                -6.427463531494141
            ],
            "type" : "VEC3"
        },
        {
            "bufferView" : 17,
            "componentType" : 5126,
            "count" : 324,
            "type" : "VEC3"
        },
        {
            "bufferView" : 18,
            "componentType" : 5126,
            "count" : 324,
            "type" : "VEC4"
        },
        {
            "bufferView" : 19,
            "componentType" : 5126,
            "count" : 324,
            "type" : "VEC2"
        },
        {
            "bufferView" : 20,
            "componentType" : 5123,
            "count" : 324,
            "type" : "SCALAR"
        },
        {
            "bufferView" : 21,
            "componentType" : 5126,
            "count" : 1027,
            "max" : [
                4.656012058258057,
                5.896228790283203,
                4.569545269012451
            ],
            "min" : [
                -7.067958831787109,
                0,
                -6.858351230621338
            ],
            "type" : "VEC3"
        },
        {
            "bufferView" : 22,
            "componentType" : 5126,
            "count" : 1027,
            "type" : "VEC3"
        },
        {
            "bufferView" : 23,
            "componentType" : 5126,
            "count" : 1027,
            "type" : "VEC4"
        },
        {
            "bufferView" : 24,
            "componentType" : 5126,
            "count" : 1027,
            "type" : "VEC2"
        },
        {
            "bufferView" : 25,
            "componentType" : 5123,
            "count" : 1224,
            "type" : "SCALAR"
        },
        {
            "bufferView" : 26,
            "componentType" : 5126,
            "count" : 9874,
            "max" : [
                7,
                7.544495105743408,
                5.462681770324707
            ],
            "min" : [
                -7.127387046813965,
                -0.04065699875354767,
                -7.051508903503418
            ],
            "type" : "VEC3"
        },
        {
            "bufferView" : 27,
            "componentType" : 5126,
            "count" : 9874,
            "type" : "VEC3"
        },
        {
            "bufferView" : 28,
            "componentType" : 5126,
            "count" : 9874,
            "type" : "VEC4"
        },
        {
            "bufferView" : 29,
            "componentType" : 5126,
            "count" : 9874,
            "type" : "VEC2"
        },
        {
            "bufferView" : 30,
            "componentType" : 5123,
            "count" : 10683,
            "type" : "SCALAR"
        },
        {
            "bufferView" : 31,
            "componentType" : 5126,
            "count" : 88,
            "max" : [
                6.646424770355225,
                7.683434009552002,
                5.5603179931640625
            ],
            "min" : [
                3.5135409832000732,
                0.7166479825973511,
                1.4651987552642822
            ],
            "type" : "VEC3"
        },
        {
            "bufferView" : 32,
            "componentType" : 5126,
            "count" : 88,
            "type" : "VEC3"
        },
        {
            "bufferView" : 33,
            "componentType" : 5126,
            "count" : 88,
            "type" : "VEC4"
        },
        {
            "bufferView" : 34,
            "componentType" : 5126,
            "count" : 88,
            "type" : "VEC2"
        },
        {
            "bufferView" : 35,
            "componentType" : 5123,
            "count" : 96,
            "type" : "SCALAR"
        }
    ],
    "bufferViews" : [
        {
            "buffer" : 0,
            "byteLength" : 506484,
            "byteOffset" : 0
        },
        {
            "buffer" : 0,
            "byteLength" : 506484,
            "byteOffset" : 506484
        },
        {
            "buffer" : 0,
            "byteLength" : 675312,
            "byteOffset" : 1012968
        },
        {
            "buffer" : 0,
            "byteLength" : 337656,
            "byteOffset" : 1688280
        },
        {
            "buffer" : 0,
            "byteLength" : 95256,
            "byteOffset" : 2025936
        },
        {
            "buffer" : 0,
            "byteLength" : 6351,
            "byteOffset" : 2121192
        },
        {
            "buffer" : 0,
            "byteLength" : 10344,
            "byteOffset" : 2127544
        },
        {
            "buffer" : 0,
            "byteLength" : 10344,
            "byteOffset" : 2137888
        },
        {
            "buffer" : 0,
            "byteLength" : 13792,
            "byteOffset" : 2148232
        },
        {
            "buffer" : 0,
            "byteLength" : 6896,
            "byteOffset" : 2162024
        },
        {
            "buffer" : 0,
            "byteLength" : 1752,
            "byteOffset" : 2168920
        },
        {
            "buffer" : 0,
            "byteLength" : 240,
            "byteOffset" : 2170672
        },
        {
            "buffer" : 0,
            "byteLength" : 240,
            "byteOffset" : 2170912
        },
        {
            "buffer" : 0,
            "byteLength" : 320,
            "byteOffset" : 2171152
        },
        {
            "buffer" : 0,
            "byteLength" : 160,
            "byteOffset" : 2171472
        },
        {
            "buffer" : 0,
            "byteLength" : 48,
            "byteOffset" : 2171632
        },
        {
            "buffer" : 0,
            "byteLength" : 3888,
            "byteOffset" : 2171680
        },
        {
            "buffer" : 0,
            "byteLength" : 3888,
            "byteOffset" : 2175568
        },
        {
            "buffer" : 0,
            "byteLength" : 5184,
            "byteOffset" : 2179456
        },
        {
            "buffer" : 0,
            "byteLength" : 2592,
            "byteOffset" : 2184640
        },
        {
            "buffer" : 0,
            "byteLength" : 648,
            "byteOffset" : 2187232
        },
        {
            "buffer" : 0,
            "byteLength" : 12324,
            "byteOffset" : 2187880
        },
        {
            "buffer" : 0,
            "byteLength" : 12324,
            "byteOffset" : 2200204
        },
        {
            "buffer" : 0,
            "byteLength" : 16432,
            "byteOffset" : 2212528
        },
        {
            "buffer" : 0,
            "byteLength" : 8216,
            "byteOffset" : 2228960
        },
        {
            "buffer" : 0,
            "byteLength" : 2448,
            "byteOffset" : 2237176
        },
        {
            "buffer" : 0,
            "byteLength" : 118488,
            "byteOffset" : 2239624
        },
        {
            "buffer" : 0,
            "byteLength" : 118488,
            "byteOffset" : 2358112
        },
        {
            "buffer" : 0,
            "byteLength" : 157984,
            "byteOffset" : 2476600
        },
        {
            "buffer" : 0,
            "byteLength" : 78992,
            "byteOffset" : 2634584
        },
        {
            "buffer" : 0,
            "byteLength" : 21366,
            "byteOffset" : 2713576
        },
        {
            "buffer" : 0,
            "byteLength" : 1056,
            "byteOffset" : 2734944
        },
        {
            "buffer" : 0,
            "byteLength" : 1056,
            "byteOffset" : 2736000
        },
        {
            "buffer" : 0,
            "byteLength" : 1408,
            "byteOffset" : 2737056
        },
        {
            "buffer" : 0,
            "byteLength" : 704,
            "byteOffset" : 2738464
        },
        {
            "buffer" : 0,
            "byteLength" : 192,
            "byteOffset" : 2739168
        }
    ],
    "samplers" : [
        {
            "magFilter" : 9729,
            "minFilter" : 9987
        }
    ],
    "buffers" : [
        {
            "byteLength" : 2739360,
            "uri" : "data:application/octet-stream;base64,"
        }
    ]
}
